<?xml version="1.0" encoding="UTF-8"?>
<svg version="1.1" xmlns="http://www.w3.org/2000/svg" width="500" height="500">
<path d="M0 0 C4.83445965 2.12865551 9.22746139 4.88381006 13.6875 7.6875 C14.96814487 8.46999005 16.25031361 9.24999114 17.53393555 10.02758789 C19.48324804 11.20891022 21.43145334 12.39170738 23.37477112 13.58287048 C29.26708119 17.19253811 35.27199635 20.58234689 41.3125 23.9375 C48.23325227 27.81517676 55.03973393 31.80918166 61.73901367 36.05688477 C76.73390216 45.55535209 91.96538768 54.66548679 107.65673828 62.96826172 C112.49920549 65.54785885 117.07309962 68.31912754 121.60595703 71.40844727 C126.27330053 74.51128352 131.12064058 77.32476509 135.9375 80.1875 C148.60769538 87.73713216 148.60769538 87.73713216 154.3515625 91.31640625 C155.154729 91.81567627 155.95789551 92.31494629 156.78540039 92.8293457 C158.24919814 93.74259102 159.70963094 94.66126429 161.16577148 95.58666992 C165.63561816 98.36903868 170.01660034 100.28886611 175 102 C175 102.66 175 103.32 175 104 C175.845625 104.226875 176.69125 104.45375 177.5625 104.6875 C180.91623819 105.96801822 183.19758776 107.41165966 185.99609375 109.5859375 C188.1846117 111.13027181 190.47042483 112.43312609 192.80297852 113.74609375 C197.66544807 116.5212514 202.44914903 119.43256027 207.25 122.3125 C208.31863281 122.95123047 209.38726562 123.58996094 210.48828125 124.24804688 C213.66613803 126.15360255 216.83437894 128.07419769 220 130 C221.02544922 130.61536621 222.05089844 131.23073242 223.10742188 131.86474609 C224.56245117 132.75734131 224.56245117 132.75734131 226.046875 133.66796875 C227.33609863 134.45143677 227.33609863 134.45143677 228.65136719 135.25073242 C231.86839649 137.64678387 234.20459047 140.40918094 236 144 C236.3501723 149.34012755 236.48069602 152.67913597 233 157 C228.5685087 160.89106553 226.18273279 162.095168 220.265625 162.328125 C217.15843416 161.87811805 214.77092009 160.43421385 212 159 C211.99940291 159.59654109 211.99880582 160.19308218 211.99819064 160.80770028 C211.96230465 196.15558783 211.90567796 231.50338281 211.82207905 266.85119051 C211.81206147 271.09447823 211.80221736 275.33776632 211.79248047 279.58105469 C211.78956841 280.84820986 211.78956841 280.84820986 211.78659752 282.14096414 C211.75556779 295.82331006 211.73859416 309.5056392 211.72680578 323.18801369 C211.71439925 337.22510461 211.68690915 351.26210742 211.64538693 365.29914272 C211.62023721 373.96230183 211.60688379 382.62531482 211.60857043 391.28851096 C211.60860016 397.22742386 211.59399212 403.16618779 211.56783572 409.10504265 C211.5531731 412.53263009 211.54500082 415.95991205 211.55419731 419.38752556 C211.56080357 423.10357858 211.54299559 426.81873571 211.51898193 430.53469849 C211.52674235 431.61835981 211.53450277 432.70202112 211.54249835 433.81852067 C211.47358096 439.82521227 211.14120918 443.50237688 207 448 C203.435402 450.37538695 200.23667056 450.25157708 196.02494907 450.25447559 C195.31946823 450.25768207 194.61398738 450.26088855 193.88712832 450.26419219 C191.51122334 450.27252688 189.13556816 450.26655587 186.75965881 450.26069641 C185.04385141 450.26371551 183.32804535 450.26760378 181.61224169 450.27228898 C176.88785439 450.28260879 172.16354263 450.28037706 167.43914902 450.27610838 C162.34772484 450.27364837 157.25631919 450.28264626 152.16490173 450.29014587 C142.18678427 450.30291499 132.20869369 450.30468383 122.23056943 450.30234561 C114.12286616 450.30056481 106.01517108 450.30230696 97.9074688 450.30657005 C96.75490409 450.30716524 95.60233939 450.30776043 94.41484849 450.30837366 C92.07365128 450.30958537 89.73245407 450.3107995 87.39125686 450.31201603 C65.42062217 450.32290003 43.45000281 450.32072497 21.47936725 450.31463119 C1.36561624 450.30946086 -18.74808635 450.32071901 -38.86182778 450.33972941 C-59.49939962 450.35908585 -80.13694853 450.36736769 -100.77452952 450.36360615 C-112.3670715 450.36169082 -123.95957226 450.36421392 -135.55210686 450.37832069 C-145.42048616 450.39020752 -155.28879888 450.39166977 -165.15717905 450.37953053 C-170.19470743 450.37362292 -175.23211384 450.37259417 -180.26963425 450.38453293 C-184.87798461 450.3953279 -189.48611026 450.39236504 -194.09444983 450.37827124 C-195.76466376 450.37560661 -197.43489495 450.37804575 -199.10509204 450.38600711 C-201.37003798 450.39605701 -203.63419425 450.38774008 -205.89910793 450.37473011 C-207.78857148 450.37481263 -207.78857148 450.37481263 -209.71620601 450.37489682 C-214.18674951 449.86451384 -216.79654909 448.3319401 -219.78757954 445.02156544 C-221.68250419 440.2990793 -221.4212218 435.69702302 -221.39872742 430.654953 C-221.40537424 429.49503556 -221.41202107 428.33511812 -221.41886932 427.14005166 C-221.43429336 423.92460747 -221.43633755 420.70947478 -221.43273985 417.4940058 C-221.43211615 414.02503897 -221.44873464 410.55614974 -221.46325684 407.08721924 C-221.4860529 401.07844151 -221.49792967 395.06972179 -221.50238609 389.06090355 C-221.5088451 380.37318205 -221.53177807 371.68556546 -221.55872939 362.99788622 C-221.60200897 348.9026583 -221.63196903 334.80743479 -221.65356445 320.7121582 C-221.67457063 307.02007884 -221.70184257 293.32803559 -221.73754883 279.63598633 C-221.74084707 278.36997713 -221.74084707 278.36997713 -221.74421193 277.07839199 C-221.7552815 272.84425272 -221.76647432 268.61011379 -221.77772844 264.37597501 C-221.87093012 229.25068084 -221.94252041 194.1253701 -222 159 C-223.41925781 159.72908569 -223.41925781 159.72908569 -224.8671875 160.47290039 C-228.83205121 162.40558606 -231.68687955 162.76773544 -236 162 C-240.79642058 159.60178971 -243.60178971 156.79642058 -246 152 C-246.82051945 147.81367628 -246.36980721 144.82366151 -244.625 140.9375 C-238.36812684 133.93576099 -229.86201264 129.67009387 -221.75390625 125.1328125 C-217.02861747 122.47601355 -212.40881638 119.64351101 -207.7980957 116.79345703 C-203.2169495 114 -203.2169495 114 -201 114 C-201 113.34 -201 112.68 -201 112 C-200.32195312 111.63648438 -199.64390625 111.27296875 -198.9453125 110.8984375 C-194.2115376 108.34141227 -189.52691766 105.74660302 -184.9375 102.9375 C-181.80961085 101.03335465 -178.68082661 99.32288912 -175.375 97.75 C-170.13593129 95.1917652 -165.28565774 92.11979717 -160.36987305 89.00048828 C-155.53281991 85.93741414 -150.63907731 82.99875025 -145.6875 80.125 C-139.56239381 76.56850944 -133.58023633 72.83319952 -127.625 69 C-121.47435393 65.05639818 -115.25509604 61.45034331 -108.75 58.125 C-97.46675213 52.35335219 -86.76706971 45.67167917 -76 39 C-64.69456194 32.02558998 -53.31263976 25.21888476 -41.79296875 18.60400391 C-36.78188921 15.72613742 -31.77471015 12.84150646 -26.76806641 9.95593262 C-25.02694313 8.95301964 -23.28496245 7.95159565 -21.54296875 6.95019531 C-20.47691406 6.3362793 -19.41085938 5.72236328 -18.3125 5.08984375 C-17.35988281 4.54191162 -16.40726563 3.99397949 -15.42578125 3.42944336 C-9.69886998 0.0547387 -6.71611193 -1.23104797 0 0 Z M-20.84765625 39.52734375 C-23.1238619 41.08474761 -25.44254191 42.38796759 -27.875 43.6875 C-33.28721788 46.58036341 -38.56999605 49.65491073 -43.84985352 52.77978516 C-48.03830522 55.25758785 -52.23430161 57.72084216 -56.4453125 60.16015625 C-67.51444671 66.57569027 -78.51239293 73.09303899 -89.4375 79.75 C-105.22568553 89.36798862 -105.22568553 89.36798862 -112.75 93.8125 C-113.38607178 94.19051758 -114.02214355 94.56853516 -114.67749023 94.95800781 C-118.4339203 97.16486606 -122.25180404 99.15802478 -126.18139648 101.0402832 C-128.02895495 102.01528016 -129.6442349 103.12113961 -131.3125 104.375 C-134.94355569 107.06769298 -138.81903766 109.11916517 -142.80078125 111.24609375 C-146.64645228 113.35440424 -150.42133874 115.56598659 -154.1875 117.8125 C-155.19586914 118.40853027 -155.19586914 118.40853027 -156.22460938 119.01660156 C-157.83426511 119.98189355 -159.41987108 120.98709685 -161 122 C-161 122.33 -161 122.66 -161 123 C-112.49 123 -63.98 123 -14 123 C-14 94.29 -14 65.58 -14 36 C-16.98106528 36 -18.52877459 37.8249337 -20.84765625 39.52734375 Z M4 36 C4.33 64.71 4.66 93.42 5 123 C53.18 123 101.36 123 151 123 C147.42914859 120.14331887 144.23419043 117.81797815 140.359375 115.50390625 C139.28816406 114.86259766 138.21695313 114.22128906 137.11328125 113.56054688 C135.44845703 112.57151367 135.44845703 112.57151367 133.75 111.5625 C132.65558594 110.90701172 131.56117188 110.25152344 130.43359375 109.57617188 C125.14329591 106.41783239 119.83222053 103.31800422 114.43432617 100.34765625 C104.45524958 94.823185 94.66182988 89.0237397 84.9375 83.0625 C74.88835164 76.92588317 64.78660084 70.8860441 54.625 64.9375 C54.03951385 64.59445831 53.45402771 64.25141663 52.85079956 63.89797974 C47.13257736 60.54968208 41.40298452 57.22374827 35.63870239 53.95545959 C27.9427801 49.58866337 20.43112116 44.96580124 12.95703125 40.23046875 C12.07917969 39.68003906 11.20132812 39.12960938 10.296875 38.5625 C9.51666992 38.06878906 8.73646484 37.57507812 7.93261719 37.06640625 C6.07603491 35.83895862 6.07603491 35.83895862 4 36 Z M-197 146 C-197 173.72 -197 201.44 -197 230 C-184.46 230 -171.92 230 -159 230 C-159 202.28 -159 174.56 -159 146 C-171.54 146 -184.08 146 -197 146 Z M-144 146 C-144 173.72 -144 201.44 -144 230 C-129.81 230 -115.62 230 -101 230 C-101 202.28 -101 174.56 -101 146 C-115.19 146 -129.38 146 -144 146 Z M-86 146 C-86 168.44 -86 190.88 -86 214 C-61.58 214 -37.16 214 -12 214 C-12 191.56 -12 169.12 -12 146 C-36.42 146 -60.84 146 -86 146 Z M2 146 C2 168.44 2 190.88 2 214 C26.42 214 50.84 214 76 214 C76 191.56 76 169.12 76 146 C51.58 146 27.16 146 2 146 Z M91 146 C91 173.72 91 201.44 91 230 C105.19 230 119.38 230 134 230 C134 202.28 134 174.56 134 146 C119.81 146 105.62 146 91 146 Z M149 146 C149 173.72 149 201.44 149 230 C161.54 230 174.08 230 187 230 C187 202.28 187 174.56 187 146 C174.46 146 161.92 146 149 146 Z M-86 228 C-86 293.67 -86 359.34 -86 427 C-61.91 427 -37.82 427 -13 427 C-11.45681655 423.91363311 -11.86677808 420.6670578 -11.87974548 417.28060913 C-11.87889106 416.47444047 -11.87803663 415.6682718 -11.87715632 414.83767378 C-11.87550196 412.12141526 -11.88102219 409.40521773 -11.88647461 406.68896484 C-11.88675652 404.74780784 -11.88659868 402.80665072 -11.8860321 400.86549377 C-11.88574427 395.58271356 -11.89163879 390.29995588 -11.89860606 385.01718092 C-11.90484188 379.50117067 -11.90544358 373.98515996 -11.90663147 368.46914673 C-11.90974411 358.01795638 -11.9179566 347.56677645 -11.92798096 337.11559069 C-11.93914418 325.21976237 -11.94465307 313.32393356 -11.94967639 301.4281013 C-11.96013926 276.95206042 -11.97848392 252.47603383 -12 228 C-36.42 228 -60.84 228 -86 228 Z M2 228 C2 293.67 2 359.34 2 427 C26.42 427 50.84 427 76 427 C76 361.33 76 295.66 76 228 C51.58 228 27.16 228 2 228 Z M-197 245 C-197 272.39 -197 299.78 -197 328 C-184.46 328 -171.92 328 -159 328 C-159 300.61 -159 273.22 -159 245 C-171.54 245 -184.08 245 -197 245 Z M-144 245 C-144 272.39 -144 299.78 -144 328 C-129.81 328 -115.62 328 -101 328 C-101 300.61 -101 273.22 -101 245 C-115.19 245 -129.38 245 -144 245 Z M91 245 C91 272.39 91 299.78 91 328 C105.19 328 119.38 328 134 328 C134 300.61 134 273.22 134 245 C119.81 245 105.62 245 91 245 Z M149 245 C149 272.39 149 299.78 149 328 C161.54 328 174.08 328 187 328 C187 300.61 187 273.22 187 245 C174.46 245 161.92 245 149 245 Z M-197 343 C-197 370.72 -197 398.44 -197 427 C-184.46 427 -171.92 427 -159 427 C-159 399.28 -159 371.56 -159 343 C-171.54 343 -184.08 343 -197 343 Z M-144 343 C-144 370.72 -144 398.44 -144 427 C-129.81 427 -115.62 427 -101 427 C-101 399.28 -101 371.56 -101 343 C-115.19 343 -129.38 343 -144 343 Z M91 343 C91 370.72 91 398.44 91 427 C105.19 427 119.38 427 134 427 C134 399.28 134 371.56 134 343 C119.81 343 105.62 343 91 343 Z M149 343 C149 370.72 149 398.44 149 427 C161.54 427 174.08 427 187 427 C187 399.28 187 371.56 187 343 C174.46 343 161.92 343 149 343 Z " fill="#131313" transform="translate(255,25)"/>
<path d="M0 0 C3.43250143 1.9401095 4.70166193 3.14227804 6 6.875 C6 10.72091174 5.05268165 12.7743574 3 16 C-0.7373856 18.4915904 -2.57331583 18.45793285 -7 18 C-9.75329021 16.20437595 -11.52627461 14.94745078 -13 12 C-13.43023798 8.12785818 -13.31669086 6.47503629 -11.125 3.1875 C-7.57218626 -0.46980826 -5.03088285 -0.426346 0 0 Z " fill="#3C3C3C" transform="translate(225,346)"/>
<path d="M0 0 C2.63761924 0.85544408 3.64462647 1.50247706 5.25 3.75 C6.25828913 6.7748674 6.45341075 8.82612473 6 12 C3.5625 14.8125 3.5625 14.8125 1 17 C0.67 17.33 0.34 17.66 0 18 C-4.27424083 18.49318163 -6.33545657 18.4524551 -9.9375 16 C-12.23092162 12.66411401 -12.75815509 10.90015906 -12.48046875 6.9375 C-10.85196706 0.37053385 -6.01167165 -0.76512185 0 0 Z " fill="#060606" transform="translate(282,346)"/>
<path d="M0 0 C2.63761924 0.85544408 3.64462647 1.50247706 5.25 3.75 C6.25828913 6.7748674 6.45341075 8.82612473 6 12 C3.5625 14.8125 3.5625 14.8125 1 17 C0.67 17.33 0.34 17.66 0 18 C-4.27424083 18.49318163 -6.33545657 18.4524551 -9.9375 16 C-12.23092162 12.66411401 -12.75815509 10.90015906 -12.48046875 6.9375 C-10.85196706 0.37053385 -6.01167165 -0.76512185 0 0 Z M-8.4375 3.5 C-10.90518736 6.25762452 -11 6.81155847 -11 10.75 C-10.26210377 14.04982138 -10.26210377 14.04982138 -8 16 C-5 16.33333333 -5 16.33333333 -2 16 C-1.34 15.34 -0.68 14.68 0 14 C0.99 14 1.98 14 3 14 C4.44244751 12.7775907 4.44244751 12.7775907 4.25 9.125 C4.20416082 6.5625898 4.17417902 5.29997497 2.875 3.0625 C-1.54497648 0.55784666 -4.53814796 0.09940229 -8.4375 3.5 Z " fill="#CBCBCB" transform="translate(282,346)"/>
<path d="M0 0 C6.00295033 1.55486254 10.73574573 4.78912863 15.875 8.125 C16.75414062 8.68832031 17.63328125 9.25164062 18.5390625 9.83203125 C20.69650085 11.21560584 22.84992109 12.60502727 25 14 C23 15 23 15 21.0625 14.5 C18.82334576 13.76397597 18.82334576 13.76397597 16 15 C14 13 14 13 13.6875 10.5 C13.3471875 9.2625 13.3471875 9.2625 13 8 C10.83378132 6.8974827 10.83378132 6.8974827 8 6 C5.25860238 4.45161801 2.56535338 2.82693901 0 1 C0 0.67 0 0.34 0 0 Z " fill="#8D8D8D" transform="translate(357,86)"/>
<path d="M0 0 C0.66 0.33 1.32 0.66 2 1 C1.375 2.9375 1.375 2.9375 0 5 C-0.825 5.12375 -1.65 5.2475 -2.5 5.375 C-7.02406257 6.18286832 -10.02447101 8.31912185 -13.828125 10.8203125 C-14.54484375 11.20960938 -15.2615625 11.59890625 -16 12 C-16.66 11.67 -17.32 11.34 -18 11 C-15.93771746 9.72881267 -13.87518109 8.45804035 -11.8125 7.1875 C-11.23435547 6.83107422 -10.65621094 6.47464844 -10.06054688 6.10742188 C-8.37503007 5.06944825 -6.68753975 4.03468147 -5 3 C-4.07574219 2.39800781 -3.15148437 1.79601562 -2.19921875 1.17578125 C-1.47347656 0.78777344 -0.74773437 0.39976563 0 0 Z " fill="#AFAFAF" transform="translate(75,125)"/>
<path d="M0 0 C1.32 0.33 2.64 0.66 4 1 C2.7315625 2.0209375 2.7315625 2.0209375 1.4375 3.0625 C-1.41423462 5.83741201 -1.41423462 5.83741201 -0.875 9.6875 C-0.16018907 12.84958374 -0.16018907 12.84958374 1 15 C0.01 14.67 -0.98 14.34 -2 14 C-3.58873246 10.82253509 -3.41026221 7.45987798 -3 4 C-1.5 1.5 -1.5 1.5 0 0 Z " fill="#808080" transform="translate(273,347)"/>
<path d="M0 0 C2 2 2 2 2.3125 5.8125 C2.19159453 10.57962991 0.54003401 13.34588939 -2.6875 16.8125 C-3.120625 17.204375 -3.55375 17.59625 -4 18 C-4.66 17.67 -5.32 17.34 -6 17 C-5.34 15.68 -4.68 14.36 -4 13 C-3.34 13 -2.68 13 -2 13 C-0.21590198 9.93753253 0.22880021 7.77920727 0.125 4.25 C0.10695313 3.45078125 0.08890625 2.6515625 0.0703125 1.828125 C0.04710937 1.22484375 0.02390625 0.6215625 0 0 Z " fill="#A7A7A7" transform="translate(489,167)"/>
<path d="M0 0 C9.01531729 -0.63019694 9.01531729 -0.63019694 13.125 2 C13.74375 2.66 14.3625 3.32 15 4 C12.36 4 9.72 4 7 4 C6.67 3.34 6.34 2.68 6 2 C2.97065509 1.34227572 2.97065509 1.34227572 0 1 C0 0.67 0 0.34 0 0 Z " fill="#6F6F6F" transform="translate(245,25)"/>
<path d="M0 0 C0.66 0.33 1.32 0.66 2 1 C1.67 2.32 1.34 3.64 1 5 C-1.31 5 -3.62 5 -6 5 C-6.33 4.34 -6.66 3.68 -7 3 C-5.02 3 -3.04 3 -1 3 C-0.67 2.01 -0.34 1.02 0 0 Z " fill="#7C7C7C" transform="translate(281,359)"/>
<path d="M0 0 C0 0.66 0 1.32 0 2 C-3.07115285 4.95303159 -5.8333396 5.52651586 -10 6 C-4.4 0 -4.4 0 0 0 Z " fill="#878787" transform="translate(113,104)"/>
<path d="" fill="#FFFFFF" transform="translate(0,0)"/>
<path d="" fill="#FFFFFF" transform="translate(0,0)"/>
<path d="" fill="#FFFFFF" transform="translate(0,0)"/>
<path d="" fill="#FFFFFF" transform="translate(0,0)"/>
<path d="" fill="#FFFFFF" transform="translate(0,0)"/>
<path d="" fill="#FFFFFF" transform="translate(0,0)"/>
<path d="" fill="#FFFFFF" transform="translate(0,0)"/>
<path d="" fill="#FFFFFF" transform="translate(0,0)"/>
<path d="" fill="#FFFFFF" transform="translate(0,0)"/>
<path d="" fill="#FFFFFF" transform="translate(0,0)"/>
<path d="" fill="#FFFFFF" transform="translate(0,0)"/>
<path d="" fill="#FFFFFF" transform="translate(0,0)"/>
<path d="" fill="#FFFFFF" transform="translate(0,0)"/>
<path d="" fill="#FFFFFF" transform="translate(0,0)"/>
<path d="" fill="#FFFFFF" transform="translate(0,0)"/>
<path d="" fill="#FFFFFF" transform="translate(0,0)"/>
<path d="" fill="#FFFFFF" transform="translate(0,0)"/>
<path d="" fill="#FFFFFF" transform="translate(0,0)"/>
<path d="" fill="#FFFFFF" transform="translate(0,0)"/>
<path d="" fill="#FFFFFF" transform="translate(0,0)"/>
<path d="" fill="#FFFFFF" transform="translate(0,0)"/>
<path d="" fill="#FFFFFF" transform="translate(0,0)"/>
<path d="" fill="#FFFFFF" transform="translate(0,0)"/>
<path d="" fill="#FFFFFF" transform="translate(0,0)"/>
<path d="" fill="#FFFFFF" transform="translate(0,0)"/>
<path d="" fill="#FFFFFF" transform="translate(0,0)"/>
<path d="" fill="#FFFFFF" transform="translate(0,0)"/>
<path d="" fill="#FFFFFF" transform="translate(0,0)"/>
<path d="" fill="#FFFFFF" transform="translate(0,0)"/>
<path d="" fill="#FFFFFF" transform="translate(0,0)"/>
<path d="" fill="#FFFFFF" transform="translate(0,0)"/>
<path d="" fill="#FFFFFF" transform="translate(0,0)"/>
<path d="" fill="#FFFFFF" transform="translate(0,0)"/>
<path d="" fill="#FFFFFF" transform="translate(0,0)"/>
<path d="" fill="#FFFFFF" transform="translate(0,0)"/>
<path d="" fill="#FFFFFF" transform="translate(0,0)"/>
<path d="" fill="#FFFFFF" transform="translate(0,0)"/>
<path d="" fill="#FFFFFF" transform="translate(0,0)"/>
<path d="" fill="#FFFFFF" transform="translate(0,0)"/>
<path d="" fill="#FFFFFF" transform="translate(0,0)"/>
</svg>
